# xmcd
#
# Track frame offsets: 
#        150
#        15537
#        29957
#        39615
#        56380
#        73650
#        90652
#        105647
#        119857
#        151045
#        164110
#        177857
#        188680
#        205617
#        229242
#        240915
#
# Disc length: 3511 seconds
#
# Revision: 10
# Processed by: cddbd v1.5.2PL0 Copyright (c) Steve Scherf et al.
# Submitted via: ExactAudioCopy v1.0b4
#
DISCID=d50db510
DTITLE=Blues Down Town - Evil Chaser
DYEAR=1999
DGENRE=Blues
TTITLE0=As Long As The World Go Round
TTITLE1=Two Goddamn' Kings
TTITLE2=I Had My Fun
TTITLE3=The Hoodoo Man Is Gone
TTITLE4=Evil Chaser
TTITLE5=5:15 Blues
TTITLE6=That's All Right
TTITLE7=No Mail Blues
TTITLE8=Teardrops Falling
TTITLE9=Give Me Another Chance
TTITLE10=Garbage Man
TTITLE11=Roller Coaster
TTITLE12=I Ain't Gonna Cry No More, For You
TTITLE13=The Man In The Dark Corner
TTITLE14=You Better Believe It
TTITLE15=Deep Down South
EXTD=
EXTT0=
EXTT1=
EXTT2=
EXTT3=
EXTT4=
EXTT5=
EXTT6=
EXTT7=
EXTT8=
EXTT9=
EXTT10=
EXTT11=
EXTT12=
EXTT13=
EXTT14=
EXTT15=
PLAYORDER=
